<?xml version="1.0" encoding="UTF-8" standalone="no"?>
<!-- Created with Inkscape (http://www.inkscape.org/) -->

<svg
   width="420.56918"
   height="462.79816"
   viewBox="0 0 420.56918 462.79816"
   version="1.1"
   id="svg1"
   xml:space="preserve"
   xmlns:xlink="http://www.w3.org/1999/xlink"
   xmlns="http://www.w3.org/2000/svg"
   xmlns:svg="http://www.w3.org/2000/svg"><defs
     id="defs1"><linearGradient
       id="linearGradient10"><stop
         style="stop-color:#3d3d3d;stop-opacity:1;"
         offset="0.14981253"
         id="stop9" /><stop
         style="stop-color:#707070;stop-opacity:1;"
         offset="1"
         id="stop10" /></linearGradient><linearGradient
       id="linearGradient6"><stop
         style="stop-color:#2c2c2c;stop-opacity:1;"
         offset="0.17961664"
         id="stop7" /><stop
         style="stop-color:#707070;stop-opacity:1;"
         offset="1"
         id="stop8" /></linearGradient><linearGradient
       xlink:href="#linearGradient6"
       id="linearGradient8"
       x1="45.706505"
       y1="255.99681"
       x2="466.2757"
       y2="255.99681"
       gradientUnits="userSpaceOnUse" /><linearGradient
       xlink:href="#linearGradient10"
       id="linearGradient9"
       gradientUnits="userSpaceOnUse"
       x1="221.94905"
       y1="488.68338"
       x2="406.15256"
       y2="129.60875" /></defs><g
     id="layer1"
     style="opacity:1;fill:url(#linearGradient8);fill-opacity:1;stroke:#ffffff;stroke-width:0.9;stroke-dasharray:none;stroke-opacity:1"
     transform="translate(-45.706505,-24.597727)"><path
       style="fill:url(#linearGradient9);fill-opacity:1;stroke:#ffffff;stroke-width:0.9;stroke-dasharray:none;stroke-opacity:1"
       d="m 55.859187,312.18899 c -63.3651801,24.79443 202.676423,157.94379 245.316853,171.87427 9.00883,2.54643 19.52352,4.57811 28.0749,0.76796 11.59156,-5.16474 18.02524,-18.18299 24.67486,-28.99138 19.30306,-49.19382 24.16553,-86.0349 52.80346,-167.02495 2.37163,-8.46303 0.40439,-17.57349 0.57782,-26.36084 0.21161,-10.72226 -2.21276,-21.80962 0.56463,-32.16808 2.43447,-9.07952 8.82561,-16.61053 13.67777,-24.66167 5.6893,-9.4402 10.79346,-19.4146 18.07608,-27.68798 5.36498,-6.09486 13.27447,-9.61808 18.54308,-15.79644 2.52692,-2.96325 4.9545,-6.24936 6.07637,-9.97865 1.94132,-6.45328 1.97037,-13.57382 0.75724,-20.20268 -0.77506,-4.23513 -1.90348,-8.93267 -5.02363,-11.89944 -1.03232,-0.98158 -2.59136,-1.48089 -4.01573,-1.46171 -3.89625,0.0525 -7.17309,3.07065 -10.87309,4.29277 -3.34003,1.10322 -6.73438,2.08904 -10.19236,2.73344 -4.43457,0.82639 -10.07788,4.42723 -13.45614,1.43796 -3.76597,-3.33235 -0.58524,-10.06766 -0.23482,-15.08406 0.35916,-5.14152 1.95973,-10.14043 2.3878,-15.276675 0.48038,-5.76388 0.81369,-11.599794 0.19525,-17.350504 -0.66784,-6.210143 -1.48768,-12.632237 -4.18987,-18.263407 -1.63986,-3.417352 -5.1566,-5.637351 -7.05524,-8.917989 -2.17121,-3.751595 -2.55201,-8.38424 -4.8231,-12.076223 -3.23862,-5.264833 -6.58876,-11.466663 -12.26883,-13.904674 -4.55238,-1.953979 -10.19191,-1.132518 -14.85188,0.548799 -3.90011,1.40716 -7.00506,4.576147 -9.85992,7.582929 -4.37845,4.611447 -7.3329,10.393687 -10.83087,15.704103 -4.2,6.376205 -7.76981,13.166855 -12.18968,19.392667 -6.6798,9.409145 -11.80726,20.942799 -21.59314,27.057389 -11.15929,6.972755 -26.25796,3.847405 -38.52676,8.604015 -9.8129,3.80446 -18.98842,9.36326 -27.40039,15.68827 -6.6987,5.03679 -12.55688,11.172 -18.06025,17.49298 -16.33219,21.42367 -32.5756,52.02102 -58.51308,59.71886 l -53.25199,15.80437 c -4.92552,1.46182 -10.09019,8.95555 -7.56446,13.42975 6.73847,11.93686 19.85901,17.22878 22.59574,23.31078 1.77563,7.9998 -50.473323,46.80786 -89.546623,61.66604 z"
       id="path1" /></g></svg>
